o Plane
v -1.000000 0.000000 -0.000000
v 1.000000 0.000000 -0.000000
v -0.843224 2.000000 0.000000
v 0.818312 2.058791 0.000000
v 0.659764 4.008688 0.000000
v -0.679639 4.016853 0.000000
v 0.419236 5.984225 0.000000
v -0.455184 6.003251 0.000000
v 0.006522 7.590890 0.000000
vn -0.0000 -0.0000 1.0000
vt 0.375000 1.000000
vt 0.312500 1.000000
vt 0.000000 1.000000
vt 0.000000 0.000000
vt 1.000000 0.000000
vt 1.000000 1.000000
vt 0.500000 1.000000
vt 0.250000 1.000000
vt 0.343750 1.000000
s 0
f 7/1/1 8/2/1 3/3/1
f 3/3/1 1/4/1 2/5/1
f 4/6/1 5/7/1 7/1/1
f 3/3/1 2/5/1 4/6/1
f 8/2/1 6/8/1 3/3/1
f 7/1/1 9/9/1 8/2/1
f 3/3/1 4/6/1 7/1/1
